{
	"asset":{
		"generator":"Khronos glTF Blender I/O v5.1.20",
		"version":"2.0"
	},
	"extensionsUsed":[
		"KHR_texture_transform"
	],
	"extensionsRequired":[
		"KHR_texture_transform"
	],
	"scene":0,
	"scenes":[
		{
			"name":"Scene",
			"nodes":[
				0,
				1,
				2,
				3,
				4,
				5,
				6,
				7,
				8,
				9,
				10
			]
		}
	],
	"nodes":[
		{
			"name":"Empty"
		},
		{
			"extras":{
				"skein":[
					{
						"api::TerrainCell":{
							"pos_x":0.0,
							"pos_y":0.0,
							"pos_z":0.0,
							"scl_x":1.0,
							"scl_y":1.0,
							"scl_z":1.0
						}
					}
				]
			},
			"mesh":0,
			"name":"Cube"
		},
		{
			"mesh":1,
			"name":"MineralField750",
			"translation":[
				-3.602513074874878,
				0,
				-8.509782791137695
			]
		},
		{
			"mesh":2,
			"name":"MineralField",
			"translation":[
				0,
				0,
				-8.589886665344238
			]
		},
		{
			"mesh":3,
			"name":"RichMineralField750",
			"translation":[
				-3.2830755710601807,
				0,
				4.581587791442871
			]
		},
		{
			"mesh":4,
			"name":"RichMineralField",
			"translation":[
				0,
				0,
				4.574304103851318
			]
		},
		{
			"mesh":5,
			"name":"RichVespeneGeyser",
			"translation":[
				0,
				0,
				-11.3071870803833
			]
		},
		{
			"mesh":6,
			"name":"VespeneGeyser",
			"translation":[
				0,
				0,
				-5.976902961730957
			]
		},
		{
			"mesh":7,
			"name":"SpacePlatformGeyser",
			"translation":[
				-3.5117459297180176,
				0,
				-5.713545322418213
			]
		},
		{
			"mesh":8,
			"name":"XelNagaTower",
			"translation":[
				-3.6608240604400635,
				0,
				0
			]
		},
		{
			"mesh":9,
			"name":"DestructibleRockEx1DiagonalHugeBLUR",
			"translation":[
				0,
				0,
				-2.827366828918457
			]
		}
	],
	"animations":[
		{
			"channels":[
				{
					"sampler":0,
					"target":{
						"node":1,
						"path":"translation"
					}
				},
				{
					"sampler":1,
					"target":{
						"node":1,
						"path":"rotation"
					}
				},
				{
					"sampler":2,
					"target":{
						"node":1,
						"path":"scale"
					}
				}
			],
			"name":"CubeAction",
			"samplers":[
				{
					"input":41,
					"interpolation":"LINEAR",
					"output":42
				},
				{
					"input":41,
					"interpolation":"LINEAR",
					"output":43
				},
				{
					"input":41,
					"interpolation":"LINEAR",
					"output":44
				}
			]
		}
	],
	"materials":[
		{
			"doubleSided":true,
			"emissiveFactor":[
				0,
				0.519537091255188,
				1
			],
			"extras":{
				"skein":[
					{
						"api::MineralField750Material":{}
					}
				]
			},
			"name":"MineralField750",
			"normalTexture":{
				"extensions":{
					"KHR_texture_transform":{
						"offset":[
							0,
							-3
						],
						"scale":[
							4,
							4
						]
					}
				},
				"index":0,
				"texCoord":1
			},
			"pbrMetallicRoughness":{
				"baseColorTexture":{
					"extensions":{
						"KHR_texture_transform":{
							"offset":[
								0,
								-3
							],
							"scale":[
								4,
								4
							]
						}
					},
					"index":1,
					"texCoord":1
				},
				"metallicRoughnessTexture":{
					"extensions":{
						"KHR_texture_transform":{
							"offset":[
								0,
								-3
							],
							"scale":[
								4,
								4
							]
						}
					},
					"index":2,
					"texCoord":1
				}
			}
		},
		{
			"doubleSided":true,
			"emissiveFactor":[
				0.09062249958515167,
				0.11319956928491592,
				1
			],
			"extras":{
				"skein":[
					{
						"api::MineralFieldMaterial":{}
					}
				]
			},
			"name":"MineralField",
			"normalTexture":{
				"extensions":{
					"KHR_texture_transform":{
						"offset":[
							0,
							-3
						],
						"scale":[
							4,
							4
						]
					}
				},
				"index":3,
				"texCoord":1
			},
			"pbrMetallicRoughness":{
				"baseColorTexture":{
					"extensions":{
						"KHR_texture_transform":{
							"offset":[
								0,
								-3
							],
							"scale":[
								4,
								4
							]
						}
					},
					"index":4,
					"texCoord":1
				},
				"metallicRoughnessTexture":{
					"extensions":{
						"KHR_texture_transform":{
							"offset":[
								0,
								-3
							],
							"scale":[
								4,
								4
							]
						}
					},
					"index":5,
					"texCoord":1
				}
			}
		},
		{
			"doubleSided":true,
			"emissiveFactor":[
				1,
				0.15592652559280396,
				0.01599629782140255
			],
			"extras":{
				"skein":[
					{
						"api::RichMineralField750Material":{}
					}
				]
			},
			"name":"RichMineralField750",
			"normalTexture":{
				"extensions":{
					"KHR_texture_transform":{
						"offset":[
							0,
							-3
						],
						"scale":[
							4,
							4
						]
					}
				},
				"index":6,
				"texCoord":1
			},
			"pbrMetallicRoughness":{
				"baseColorTexture":{
					"extensions":{
						"KHR_texture_transform":{
							"offset":[
								0,
								-3
							],
							"scale":[
								4,
								4
							]
						}
					},
					"index":7,
					"texCoord":1
				},
				"metallicRoughnessTexture":{
					"extensions":{
						"KHR_texture_transform":{
							"offset":[
								0,
								-3
							],
							"scale":[
								4,
								4
							]
						}
					},
					"index":8,
					"texCoord":1
				}
			}
		},
		{
			"doubleSided":true,
			"emissiveFactor":[
				1,
				0.7156937718391418,
				0.018500223755836487
			],
			"extras":{
				"skein":[
					{
						"api::RichMineralFieldMaterial":{}
					}
				]
			},
			"name":"RichMineralField",
			"normalTexture":{
				"extensions":{
					"KHR_texture_transform":{
						"offset":[
							0,
							-3
						],
						"scale":[
							4,
							4
						]
					}
				},
				"index":9,
				"texCoord":1
			},
			"pbrMetallicRoughness":{
				"baseColorTexture":{
					"extensions":{
						"KHR_texture_transform":{
							"offset":[
								0,
								-3
							],
							"scale":[
								4,
								4
							]
						}
					},
					"index":10,
					"texCoord":1
				},
				"metallicRoughnessTexture":{
					"extensions":{
						"KHR_texture_transform":{
							"offset":[
								0,
								-3
							],
							"scale":[
								4,
								4
							]
						}
					},
					"index":11,
					"texCoord":1
				}
			}
		},
		{
			"doubleSided":true,
			"emissiveFactor":[
				0.26448434591293335,
				0.014636649750173092,
				1
			],
			"extras":{
				"skein":[
					{
						"api::RichVespeneGeyserMaterial":{}
					}
				]
			},
			"name":"RichVespeneGeyser",
			"normalTexture":{
				"extensions":{
					"KHR_texture_transform":{
						"offset":[
							0,
							-3
						],
						"scale":[
							4,
							4
						]
					}
				},
				"index":12,
				"texCoord":1
			},
			"pbrMetallicRoughness":{
				"baseColorTexture":{
					"extensions":{
						"KHR_texture_transform":{
							"offset":[
								0,
								-3
							],
							"scale":[
								4,
								4
							]
						}
					},
					"index":13,
					"texCoord":1
				},
				"metallicRoughnessTexture":{
					"extensions":{
						"KHR_texture_transform":{
							"offset":[
								0,
								-3
							],
							"scale":[
								4,
								4
							]
						}
					},
					"index":14,
					"texCoord":1
				}
			}
		},
		{
			"doubleSided":true,
			"emissiveFactor":[
				0.013938122428953648,
				1,
				0.09585227817296982
			],
			"extras":{
				"skein":[
					{
						"api::VespeneGeyserMaterial":{}
					}
				]
			},
			"name":"VespeneGeyser",
			"normalTexture":{
				"extensions":{
					"KHR_texture_transform":{
						"offset":[
							0,
							-3
						],
						"scale":[
							4,
							4
						]
					}
				},
				"index":15,
				"texCoord":1
			},
			"pbrMetallicRoughness":{
				"baseColorTexture":{
					"extensions":{
						"KHR_texture_transform":{
							"offset":[
								0,
								-3
							],
							"scale":[
								4,
								4
							]
						}
					},
					"index":16,
					"texCoord":1
				},
				"metallicRoughnessTexture":{
					"extensions":{
						"KHR_texture_transform":{
							"offset":[
								0,
								-3
							],
							"scale":[
								4,
								4
							]
						}
					},
					"index":17,
					"texCoord":1
				}
			}
		},
		{
			"doubleSided":true,
			"emissiveFactor":[
				0.2699539363384247,
				1,
				0.008332464843988419
			],
			"extras":{
				"skein":[
					{
						"api::SpacePlatformGeyserMaterial":{}
					}
				]
			},
			"name":"SpacePlatformGeyser",
			"normalTexture":{
				"extensions":{
					"KHR_texture_transform":{
						"offset":[
							0,
							-3
						],
						"scale":[
							4,
							4
						]
					}
				},
				"index":18,
				"texCoord":1
			},
			"pbrMetallicRoughness":{
				"baseColorTexture":{
					"extensions":{
						"KHR_texture_transform":{
							"offset":[
								0,
								-3
							],
							"scale":[
								4,
								4
							]
						}
					},
					"index":19,
					"texCoord":1
				},
				"metallicRoughnessTexture":{
					"extensions":{
						"KHR_texture_transform":{
							"offset":[
								0,
								-3
							],
							"scale":[
								4,
								4
							]
						}
					},
					"index":20,
					"texCoord":1
				}
			}
		},
		{
			"doubleSided":true,
			"extras":{
				"skein":[
					{
						"api::XelNagaTowerMaterial":{}
					}
				]
			},
			"name":"XelNagaTower",
			"normalTexture":{
				"extensions":{
					"KHR_texture_transform":{
						"offset":[
							0,
							-3
						],
						"scale":[
							4,
							4
						]
					}
				},
				"index":21,
				"texCoord":1
			},
			"pbrMetallicRoughness":{
				"baseColorTexture":{
					"extensions":{
						"KHR_texture_transform":{
							"offset":[
								0,
								-3
							],
							"scale":[
								4,
								4
							]
						}
					},
					"index":22,
					"texCoord":1
				},
				"metallicRoughnessTexture":{
					"extensions":{
						"KHR_texture_transform":{
							"offset":[
								0,
								-3
							],
							"scale":[
								4,
								4
							]
						}
					},
					"index":23,
					"texCoord":1
				}
			}
		},
		{
			"doubleSided":true,
			"extras":{
				"skein":[
					{
						"api::MineralField750Material":{}
					}
				]
			},
			"name":"DestructibleRockEx1DiagonalHugeBLUR",
			"normalTexture":{
				"extensions":{
					"KHR_texture_transform":{
						"offset":[
							0,
							-3
						],
						"scale":[
							4,
							4
						]
					}
				},
				"index":24,
				"texCoord":1
			},
			"pbrMetallicRoughness":{
				"baseColorTexture":{
					"extensions":{
						"KHR_texture_transform":{
							"offset":[
								0,
								-3
							],
							"scale":[
								4,
								4
							]
						}
					},
					"index":25,
					"texCoord":1
				},
				"metallicRoughnessTexture":{
					"extensions":{
						"KHR_texture_transform":{
							"offset":[
								0,
								-3
							],
							"scale":[
								4,
								4
							]
						}
					},
					"index":26,
					"texCoord":1
				}
			}
		}
	],
	"meshes":[
		{
			"name":"Cube.001",
			"primitives":[
				{
					"attributes":{
						"POSITION":0,
						"NORMAL":1,
						"TEXCOORD_0":2
					},
					"indices":3
				}
			]
		},
		{
			"name":"Cone",
			"primitives":[
				{
					"attributes":{
						"POSITION":4,
						"NORMAL":5,
						"TEXCOORD_0":6,
						"TEXCOORD_1":7
					},
					"indices":8,
					"material":0
				}
			]
		},
		{
			"name":"Cone.001",
			"primitives":[
				{
					"attributes":{
						"POSITION":9,
						"NORMAL":10,
						"TEXCOORD_0":11,
						"TEXCOORD_1":12
					},
					"indices":8,
					"material":1
				}
			]
		},
		{
			"name":"Cone.002",
			"primitives":[
				{
					"attributes":{
						"POSITION":13,
						"NORMAL":14,
						"TEXCOORD_0":15,
						"TEXCOORD_1":16
					},
					"indices":8,
					"material":2
				}
			]
		},
		{
			"name":"Cone.003",
			"primitives":[
				{
					"attributes":{
						"POSITION":17,
						"NORMAL":18,
						"TEXCOORD_0":19,
						"TEXCOORD_1":20
					},
					"indices":8,
					"material":3
				}
			]
		},
		{
			"name":"Cone.004",
			"primitives":[
				{
					"attributes":{
						"POSITION":21,
						"NORMAL":22,
						"TEXCOORD_0":23,
						"TEXCOORD_1":24
					},
					"indices":8,
					"material":4
				}
			]
		},
		{
			"name":"Cone.005",
			"primitives":[
				{
					"attributes":{
						"POSITION":25,
						"NORMAL":26,
						"TEXCOORD_0":27,
						"TEXCOORD_1":28
					},
					"indices":8,
					"material":5
				}
			]
		},
		{
			"name":"Cone.006",
			"primitives":[
				{
					"attributes":{
						"POSITION":29,
						"NORMAL":30,
						"TEXCOORD_0":31,
						"TEXCOORD_1":32
					},
					"indices":8,
					"material":6
				}
			]
		},
		{
			"name":"Cone.007",
			"primitives":[
				{
					"attributes":{
						"POSITION":33,
						"NORMAL":34,
						"TEXCOORD_0":35,
						"TEXCOORD_1":36
					},
					"indices":8,
					"material":7
				}
			]
		},
		{
			"name":"Cone.008",
			"primitives":[
				{
					"attributes":{
						"POSITION":37,
						"NORMAL":38,
						"TEXCOORD_0":39,
						"TEXCOORD_1":40
					},
					"indices":8,
					"material":8
				}
			]
		}
	],
	"textures":[
		{
			"sampler":0,
			"source":0
		},
		{
			"sampler":0,
			"source":1
		},
		{
			"sampler":0,
			"source":0
		},
		{
			"sampler":0,
			"source":2
		},
		{
			"sampler":0,
			"source":1
		},
		{
			"sampler":0,
			"source":2
		},
		{
			"sampler":0,
			"source":2
		},
		{
			"sampler":0,
			"source":1
		},
		{
			"sampler":0,
			"source":2
		},
		{
			"sampler":0,
			"source":2
		},
		{
			"sampler":0,
			"source":1
		},
		{
			"sampler":0,
			"source":2
		},
		{
			"sampler":0,
			"source":2
		},
		{
			"sampler":0,
			"source":1
		},
		{
			"sampler":0,
			"source":2
		},
		{
			"sampler":0,
			"source":2
		},
		{
			"sampler":0,
			"source":1
		},
		{
			"sampler":0,
			"source":2
		},
		{
			"sampler":0,
			"source":2
		},
		{
			"sampler":0,
			"source":1
		},
		{
			"sampler":0,
			"source":2
		},
		{
			"sampler":0,
			"source":2
		},
		{
			"sampler":0,
			"source":1
		},
		{
			"sampler":0,
			"source":2
		},
		{
			"sampler":0,
			"source":2
		},
		{
			"sampler":0,
			"source":1
		},
		{
			"sampler":0,
			"source":2
		}
	],
	"images":[
		{
			"mimeType":"image/png",
			"name":"Blue_Gems_In_Soil_01-disp",
			"uri":"Blue_Gems_In_Soil_01-disp.png"
		},
		{
			"mimeType":"image/jpeg",
			"name":"Blue_Gems_In_Soil_01-diffuse",
			"uri":"Blue_Gems_In_Soil_01-diffuse.jpg"
		},
		{
			"mimeType":"image/png",
			"name":"Blue_Gems_In_Soil_01-disp.exr",
			"uri":"Blue_Gems_In_Soil_01-disp.exr.png"
		}
	],
	"accessors":[
		{
			"bufferView":0,
			"componentType":5126,
			"count":24,
			"max":[
				1,
				1,
				1
			],
			"min":[
				-1,
				-1,
				-1
			],
			"type":"VEC3"
		},
		{
			"bufferView":1,
			"componentType":5126,
			"count":24,
			"type":"VEC3"
		},
		{
			"bufferView":2,
			"componentType":5126,
			"count":24,
			"type":"VEC2"
		},
		{
			"bufferView":3,
			"componentType":5123,
			"count":36,
			"type":"SCALAR"
		},
		{
			"bufferView":4,
			"componentType":5126,
			"count":128,
			"max":[
				1,
				1,
				1
			],
			"min":[
				-1,
				-1,
				-1
			],
			"type":"VEC3"
		},
		{
			"bufferView":5,
			"componentType":5126,
			"count":128,
			"type":"VEC3"
		},
		{
			"bufferView":6,
			"componentType":5126,
			"count":128,
			"type":"VEC2"
		},
		{
			"bufferView":7,
			"componentType":5126,
			"count":128,
			"type":"VEC2"
		},
		{
			"bufferView":8,
			"componentType":5123,
			"count":186,
			"type":"SCALAR"
		},
		{
			"bufferView":9,
			"componentType":5126,
			"count":128,
			"max":[
				1,
				1,
				1
			],
			"min":[
				-1,
				-1,
				-1
			],
			"type":"VEC3"
		},
		{
			"bufferView":10,
			"componentType":5126,
			"count":128,
			"type":"VEC3"
		},
		{
			"bufferView":11,
			"componentType":5126,
			"count":128,
			"type":"VEC2"
		},
		{
			"bufferView":12,
			"componentType":5126,
			"count":128,
			"type":"VEC2"
		},
		{
			"bufferView":13,
			"componentType":5126,
			"count":128,
			"max":[
				1,
				1,
				1
			],
			"min":[
				-1,
				-1,
				-1
			],
			"type":"VEC3"
		},
		{
			"bufferView":14,
			"componentType":5126,
			"count":128,
			"type":"VEC3"
		},
		{
			"bufferView":15,
			"componentType":5126,
			"count":128,
			"type":"VEC2"
		},
		{
			"bufferView":16,
			"componentType":5126,
			"count":128,
			"type":"VEC2"
		},
		{
			"bufferView":17,
			"componentType":5126,
			"count":128,
			"max":[
				1,
				1,
				1
			],
			"min":[
				-1,
				-1,
				-1
			],
			"type":"VEC3"
		},
		{
			"bufferView":18,
			"componentType":5126,
			"count":128,
			"type":"VEC3"
		},
		{
			"bufferView":19,
			"componentType":5126,
			"count":128,
			"type":"VEC2"
		},
		{
			"bufferView":20,
			"componentType":5126,
			"count":128,
			"type":"VEC2"
		},
		{
			"bufferView":21,
			"componentType":5126,
			"count":128,
			"max":[
				1,
				1,
				1
			],
			"min":[
				-1,
				-1,
				-1
			],
			"type":"VEC3"
		},
		{
			"bufferView":22,
			"componentType":5126,
			"count":128,
			"type":"VEC3"
		},
		{
			"bufferView":23,
			"componentType":5126,
			"count":128,
			"type":"VEC2"
		},
		{
			"bufferView":24,
			"componentType":5126,
			"count":128,
			"type":"VEC2"
		},
		{
			"bufferView":25,
			"componentType":5126,
			"count":128,
			"max":[
				1,
				1,
				1
			],
			"min":[
				-1,
				-1,
				-1
			],
			"type":"VEC3"
		},
		{
			"bufferView":26,
			"componentType":5126,
			"count":128,
			"type":"VEC3"
		},
		{
			"bufferView":27,
			"componentType":5126,
			"count":128,
			"type":"VEC2"
		},
		{
			"bufferView":28,
			"componentType":5126,
			"count":128,
			"type":"VEC2"
		},
		{
			"bufferView":29,
			"componentType":5126,
			"count":128,
			"max":[
				1,
				1,
				1
			],
			"min":[
				-1,
				-1,
				-1
			],
			"type":"VEC3"
		},
		{
			"bufferView":30,
			"componentType":5126,
			"count":128,
			"type":"VEC3"
		},
		{
			"bufferView":31,
			"componentType":5126,
			"count":128,
			"type":"VEC2"
		},
		{
			"bufferView":32,
			"componentType":5126,
			"count":128,
			"type":"VEC2"
		},
		{
			"bufferView":33,
			"componentType":5126,
			"count":128,
			"max":[
				1,
				1,
				1
			],
			"min":[
				-1,
				-1,
				-1
			],
			"type":"VEC3"
		},
		{
			"bufferView":34,
			"componentType":5126,
			"count":128,
			"type":"VEC3"
		},
		{
			"bufferView":35,
			"componentType":5126,
			"count":128,
			"type":"VEC2"
		},
		{
			"bufferView":36,
			"componentType":5126,
			"count":128,
			"type":"VEC2"
		},
		{
			"bufferView":37,
			"componentType":5126,
			"count":128,
			"max":[
				1,
				1,
				1
			],
			"min":[
				-1,
				-1,
				-1
			],
			"type":"VEC3"
		},
		{
			"bufferView":38,
			"componentType":5126,
			"count":128,
			"type":"VEC3"
		},
		{
			"bufferView":39,
			"componentType":5126,
			"count":128,
			"type":"VEC2"
		},
		{
			"bufferView":40,
			"componentType":5126,
			"count":128,
			"type":"VEC2"
		},
		{
			"bufferView":41,
			"componentType":5126,
			"count":1,
			"max":[
				0.041666666666666664
			],
			"min":[
				0.041666666666666664
			],
			"type":"SCALAR"
		},
		{
			"bufferView":42,
			"componentType":5126,
			"count":1,
			"type":"VEC3"
		},
		{
			"bufferView":43,
			"componentType":5126,
			"count":1,
			"type":"VEC4"
		},
		{
			"bufferView":44,
			"componentType":5126,
			"count":1,
			"type":"VEC3"
		}
	],
	"bufferViews":[
		{
			"buffer":0,
			"byteLength":288,
			"byteOffset":0,
			"target":34962
		},
		{
			"buffer":0,
			"byteLength":288,
			"byteOffset":288,
			"target":34962
		},
		{
			"buffer":0,
			"byteLength":192,
			"byteOffset":576,
			"target":34962
		},
		{
			"buffer":0,
			"byteLength":72,
			"byteOffset":768,
			"target":34963
		},
		{
			"buffer":0,
			"byteLength":1536,
			"byteOffset":840,
			"target":34962
		},
		{
			"buffer":0,
			"byteLength":1536,
			"byteOffset":2376,
			"target":34962
		},
		{
			"buffer":0,
			"byteLength":1024,
			"byteOffset":3912,
			"target":34962
		},
		{
			"buffer":0,
			"byteLength":1024,
			"byteOffset":4936,
			"target":34962
		},
		{
			"buffer":0,
			"byteLength":372,
			"byteOffset":5960,
			"target":34963
		},
		{
			"buffer":0,
			"byteLength":1536,
			"byteOffset":6332,
			"target":34962
		},
		{
			"buffer":0,
			"byteLength":1536,
			"byteOffset":7868,
			"target":34962
		},
		{
			"buffer":0,
			"byteLength":1024,
			"byteOffset":9404,
			"target":34962
		},
		{
			"buffer":0,
			"byteLength":1024,
			"byteOffset":10428,
			"target":34962
		},
		{
			"buffer":0,
			"byteLength":1536,
			"byteOffset":11452,
			"target":34962
		},
		{
			"buffer":0,
			"byteLength":1536,
			"byteOffset":12988,
			"target":34962
		},
		{
			"buffer":0,
			"byteLength":1024,
			"byteOffset":14524,
			"target":34962
		},
		{
			"buffer":0,
			"byteLength":1024,
			"byteOffset":15548,
			"target":34962
		},
		{
			"buffer":0,
			"byteLength":1536,
			"byteOffset":16572,
			"target":34962
		},
		{
			"buffer":0,
			"byteLength":1536,
			"byteOffset":18108,
			"target":34962
		},
		{
			"buffer":0,
			"byteLength":1024,
			"byteOffset":19644,
			"target":34962
		},
		{
			"buffer":0,
			"byteLength":1024,
			"byteOffset":20668,
			"target":34962
		},
		{
			"buffer":0,
			"byteLength":1536,
			"byteOffset":21692,
			"target":34962
		},
		{
			"buffer":0,
			"byteLength":1536,
			"byteOffset":23228,
			"target":34962
		},
		{
			"buffer":0,
			"byteLength":1024,
			"byteOffset":24764,
			"target":34962
		},
		{
			"buffer":0,
			"byteLength":1024,
			"byteOffset":25788,
			"target":34962
		},
		{
			"buffer":0,
			"byteLength":1536,
			"byteOffset":26812,
			"target":34962
		},
		{
			"buffer":0,
			"byteLength":1536,
			"byteOffset":28348,
			"target":34962
		},
		{
			"buffer":0,
			"byteLength":1024,
			"byteOffset":29884,
			"target":34962
		},
		{
			"buffer":0,
			"byteLength":1024,
			"byteOffset":30908,
			"target":34962
		},
		{
			"buffer":0,
			"byteLength":1536,
			"byteOffset":31932,
			"target":34962
		},
		{
			"buffer":0,
			"byteLength":1536,
			"byteOffset":33468,
			"target":34962
		},
		{
			"buffer":0,
			"byteLength":1024,
			"byteOffset":35004,
			"target":34962
		},
		{
			"buffer":0,
			"byteLength":1024,
			"byteOffset":36028,
			"target":34962
		},
		{
			"buffer":0,
			"byteLength":1536,
			"byteOffset":37052,
			"target":34962
		},
		{
			"buffer":0,
			"byteLength":1536,
			"byteOffset":38588,
			"target":34962
		},
		{
			"buffer":0,
			"byteLength":1024,
			"byteOffset":40124,
			"target":34962
		},
		{
			"buffer":0,
			"byteLength":1024,
			"byteOffset":41148,
			"target":34962
		},
		{
			"buffer":0,
			"byteLength":1536,
			"byteOffset":42172,
			"target":34962
		},
		{
			"buffer":0,
			"byteLength":1536,
			"byteOffset":43708,
			"target":34962
		},
		{
			"buffer":0,
			"byteLength":1024,
			"byteOffset":45244,
			"target":34962
		},
		{
			"buffer":0,
			"byteLength":1024,
			"byteOffset":46268,
			"target":34962
		},
		{
			"buffer":0,
			"byteLength":4,
			"byteOffset":47292
		},
		{
			"buffer":0,
			"byteLength":12,
			"byteOffset":47296
		},
		{
			"buffer":0,
			"byteLength":16,
			"byteOffset":47308
		},
		{
			"buffer":0,
			"byteLength":12,
			"byteOffset":47324
		}
	],
	"samplers":[
		{
			"magFilter":9729,
			"minFilter":9987
		}
	],
	"buffers":[
		{
			"byteLength":47336,
			"uri":"swarmy-objects.bin"
		}
	]
}
